<?xml version="1.0" standalone="no"?>
<!DOCTYPE svg PUBLIC "-//W3C//DTD SVG 20010904//EN"
 "http://www.w3.org/TR/2001/REC-SVG-20010904/DTD/svg10.dtd">
<svg version="1.0" xmlns="http://www.w3.org/2000/svg"
 width="822.000000pt" height="822.000000pt" viewBox="0 0 822.000000 822.000000"
 preserveAspectRatio="xMidYMid meet">
<metadata>
Created by potrace 1.14, written by Peter Selinger 2001-2017
</metadata>
<g transform="translate(0.000000,822.000000) scale(0.100000,-0.100000)"
fill="#000000" stroke="none">
<path d="M4703 7443 c9 -2 25 -2 35 0 9 3 1 5 -18 5 -19 0 -27 -2 -17 -5z"/>
<path d="M4975 7440 c3 -5 11 -10 16 -10 6 0 7 5 4 10 -3 6 -11 10 -16 10 -6
0 -7 -4 -4 -10z"/>
<path d="M5120 7446 c0 -2 11 -6 25 -8 13 -3 22 -1 19 3 -5 9 -44 13 -44 5z"/>
<path d="M5195 7420 c3 -5 16 -10 28 -10 18 0 19 2 7 10 -20 13 -43 13 -35 0z"/>
<path d="M4848 7413 c6 -2 18 -2 25 0 6 3 1 5 -13 5 -14 0 -19 -2 -12 -5z"/>
<path d="M5073 7413 c9 -2 23 -2 30 0 6 3 -1 5 -18 5 -16 0 -22 -2 -12 -5z"/>
<path d="M4955 7392 c6 -5 24 -13 40 -16 19 -5 26 -4 20 2 -5 5 -23 13 -40 16
-19 5 -26 4 -20 -2z"/>
<path d="M5285 7388 c11 -7 45 -22 75 -35 30 -12 54 -28 52 -34 -2 -7 4 -9 12
-6 9 4 40 -5 70 -18 30 -13 58 -20 61 -15 6 10 -100 62 -165 81 -25 7 -49 16
-55 19 -5 4 -23 10 -40 14 -27 6 -28 5 -10 -6z"/>
<path d="M4309 7379 c-10 -6 -4 -9 19 -9 17 0 32 2 32 4 0 9 -39 13 -51 5z"/>
<path d="M4615 7360 c3 -5 -9 -14 -27 -19 l-33 -10 30 1 c40 2 95 -12 95 -24
0 -11 -122 -2 -172 13 -17 4 -53 4 -85 -2 -30 -6 -61 -8 -69 -5 -7 3 -16 1
-19 -3 -6 -11 44 -21 104 -21 25 0 87 -7 136 -15 50 -8 113 -15 140 -17 28 -1
55 -6 61 -10 6 -5 38 -11 70 -14 32 -4 70 -11 84 -17 14 -6 27 -11 30 -12 69
-21 90 -24 119 -15 22 6 40 6 52 0 26 -14 37 -12 16 4 -14 11 -15 15 -4 24 10
8 21 7 41 -3 16 -8 37 -15 47 -15 10 0 21 -5 24 -10 4 -6 15 -8 26 -5 11 4 19
2 19 -5 0 -7 9 -9 23 -5 17 5 18 4 7 -4 -12 -8 -11 -11 5 -17 11 -4 24 -9 29
-12 5 -3 6 0 2 6 -9 15 16 16 31 1 6 -6 17 -9 25 -6 9 4 5 8 -9 12 -13 4 -23
11 -23 16 0 5 -8 9 -19 9 -10 0 -34 7 -54 15 -19 8 -37 12 -40 9 -3 -3 -17 2
-31 11 -14 9 -31 18 -38 19 -7 2 -20 6 -28 9 -48 18 -93 28 -134 29 -32 0 -46
5 -46 14 0 8 -11 14 -26 14 -14 0 -50 7 -80 16 -40 11 -58 13 -68 5 -7 -6 -27
-8 -45 -5 l-32 7 25 16 c25 17 25 17 -32 17 -31 -1 -67 -7 -79 -13 -17 -10
-22 -10 -26 2 -4 8 1 16 11 18 10 3 5 5 -11 6 -16 0 -26 -3 -22 -9z"/>
<path d="M3967 7354 c-1 -1 -47 -5 -102 -8 -97 -6 -130 -10 -280 -39 -56 -10
-65 -15 -45 -20 14 -4 44 -7 68 -7 24 0 41 -4 38 -9 -3 -5 -15 -7 -26 -4 -11
3 -26 1 -33 -5 -6 -6 -30 -13 -52 -17 -22 -3 -49 -10 -60 -14 -11 -5 -47 -17
-80 -27 -76 -23 -49 -30 31 -8 32 9 86 22 119 29 33 8 78 18 100 23 81 20 351
50 458 52 9 0 17 5 17 10 0 6 -24 11 -52 11 -49 2 -47 2 22 10 80 8 92 6 84
-15 -4 -11 6 -14 44 -14 28 -1 63 3 78 8 l29 8 -35 3 c-19 1 -43 1 -54 0 -10
0 -24 6 -31 15 -10 14 -32 17 -124 18 -62 1 -113 0 -114 0z m-2 -34 c-3 -5
-10 -10 -16 -10 -5 0 -9 5 -9 10 0 6 7 10 16 10 8 0 12 -4 9 -10z"/>
<path d="M5088 7353 c6 -2 18 -2 25 0 6 3 1 5 -13 5 -14 0 -19 -2 -12 -5z"/>
<path d="M5448 7293 c7 -3 16 -2 19 1 4 3 -2 6 -13 5 -11 0 -14 -3 -6 -6z"/>
<path d="M3430 7273 c-42 -8 -46 -23 -4 -16 45 7 82 23 49 21 -11 0 -31 -3
-45 -5z"/>
<path d="M5355 7260 c3 -5 14 -10 23 -10 15 0 15 2 2 10 -20 13 -33 13 -25 0z"/>
<path d="M5562 7261 c-12 -7 3 -17 40 -25 17 -3 21 -18 8 -26 -9 -6 -10 -10
-3 -10 6 0 15 5 18 10 4 6 16 8 27 4 31 -10 13 11 -22 26 -16 7 -30 16 -30 21
0 11 -21 11 -38 0z"/>
<path d="M5420 7242 c0 -9 80 -45 87 -39 2 3 -10 11 -26 18 -17 8 -31 17 -31
21 0 5 -7 8 -15 8 -8 0 -15 -3 -15 -8z"/>
<path d="M3323 7233 c9 -2 23 -2 30 0 6 3 -1 5 -18 5 -16 0 -22 -2 -12 -5z"/>
<path d="M5542 7195 c-20 -11 -21 -13 -7 -19 9 -3 25 -6 36 -6 10 0 19 -4 19
-10 0 -5 4 -10 9 -10 15 0 0 40 -18 49 -9 4 -26 3 -39 -4z"/>
<path d="M5675 7200 c-4 -6 3 -10 14 -10 25 0 27 6 6 13 -8 4 -17 2 -20 -3z"/>
<path d="M3298 7173 c7 -3 16 -2 19 1 4 3 -2 6 -13 5 -11 0 -14 -3 -6 -6z"/>
<path d="M5080 7176 c0 -7 40 -14 44 -7 3 4 -6 8 -20 9 -13 1 -24 0 -24 -2z"/>
<path d="M5152 7171 c-10 -6 -6 -11 16 -19 35 -12 47 -6 27 14 -16 16 -25 17
-43 5z"/>
<path d="M5770 7150 c20 -13 33 -13 25 0 -3 6 -14 10 -23 10 -15 0 -15 -2 -2
-10z"/>
<path d="M5220 7136 c0 -2 9 -6 20 -9 11 -3 20 -1 20 4 0 5 -9 9 -20 9 -11 0
-20 -2 -20 -4z"/>
<path d="M5380 7130 c0 -5 7 -10 16 -10 8 0 12 5 9 10 -3 6 -10 10 -16 10 -5
0 -9 -4 -9 -10z"/>
<path d="M5434 7128 c-4 -6 -3 -8 4 -4 6 3 13 2 17 -4 3 -5 13 -10 21 -10 9 0
22 -7 30 -15 17 -16 34 -20 34 -7 0 7 -82 52 -95 52 -2 0 -7 -5 -11 -12z"/>
<path d="M5750 7130 c-14 -9 -6 -15 15 -10 5 1 15 -7 22 -16 7 -10 13 -13 13
-7 0 20 -35 42 -50 33z"/>
<path d="M5840 7120 c0 -5 5 -10 11 -10 5 0 7 5 4 10 -3 6 -8 10 -11 10 -2 0
-4 -4 -4 -10z"/>
<path d="M5317 7100 c19 -22 29 -19 20 5 -4 8 -13 15 -22 15 -13 0 -12 -3 2
-20z"/>
<path d="M5350 7089 c0 -5 5 -7 10 -4 6 3 10 8 10 11 0 2 -4 4 -10 4 -5 0 -10
-5 -10 -11z"/>
<path d="M5477 7070 c12 -21 23 -28 35 -24 10 3 43 -4 74 -15 30 -12 52 -16
48 -10 -4 7 -1 10 7 7 8 -3 13 -10 12 -16 -1 -5 3 -9 10 -8 7 0 14 -3 15 -9 6
-17 24 -35 35 -35 6 0 2 7 -9 16 -18 15 -18 15 11 9 l30 -7 -25 19 c-49 35
-70 43 -98 37 -24 -7 -26 -6 -13 9 12 15 11 17 -3 17 -11 0 -14 -5 -10 -12 5
-8 2 -9 -12 -4 -10 5 -28 11 -39 14 -11 3 -32 13 -47 24 -37 25 -42 23 -21
-12z"/>
<path d="M5396 7065 c10 -8 24 -14 29 -14 6 0 1 6 -9 14 -11 8 -24 15 -30 15
-5 0 -1 -7 10 -15z"/>
<path d="M5550 6987 c25 -13 49 -21 53 -19 15 7 -47 42 -73 42 -21 -1 -18 -4
20 -23z"/>
<path d="M5870 7001 c0 -11 49 -21 55 -11 5 9 -18 20 -41 20 -8 0 -14 -4 -14
-9z"/>
<path d="M5980 6966 c0 -2 7 -6 15 -10 8 -3 15 -1 15 4 0 6 -7 10 -15 10 -8 0
-15 -2 -15 -4z"/>
<path d="M5785 6947 c17 -8 32 -13 34 -11 7 7 -3 12 -34 19 l-30 6 30 -14z"/>
<path d="M5743 6936 c24 -19 21 -26 -10 -27 l-28 -1 28 -10 c15 -5 27 -13 27
-17 0 -5 18 -16 40 -26 22 -10 40 -21 40 -25 0 -4 12 -12 26 -18 39 -19 20 2
-41 42 -40 27 -54 42 -52 57 1 15 -6 24 -23 30 -22 8 -23 8 -7 -5z"/>
<path d="M6106 6871 c-3 -5 1 -11 9 -15 8 -3 15 -1 15 4 0 13 -18 22 -24 11z"/>
<path d="M5870 6860 c0 -5 5 -10 11 -10 5 0 7 5 4 10 -3 6 -8 10 -11 10 -2 0
-4 -4 -4 -10z"/>
<path d="M6160 6795 c0 -10 10 -15 30 -15 32 0 40 14 14 24 -27 10 -44 7 -44
-9z"/>
<path d="M5900 6795 c0 -11 44 -44 58 -45 6 0 12 4 12 8 0 8 -14 16 -62 40 -5
2 -8 1 -8 -3z"/>
<path d="M6350 6790 c0 -14 47 -58 71 -65 11 -4 19 -13 19 -21 0 -7 9 -19 20
-26 11 -7 20 -17 20 -21 0 -15 30 -39 45 -35 10 2 -9 28 -58 79 -72 76 -117
110 -117 89z"/>
<path d="M5980 6744 c0 -9 28 -34 38 -34 20 0 74 -60 68 -75 -3 -10 1 -15 14
-15 24 0 74 -42 69 -58 -3 -8 -15 -3 -33 13 -40 35 -46 31 -10 -6 38 -40 64
-55 74 -40 5 9 13 8 31 -1 49 -27 52 -30 38 -39 -11 -7 -9 -10 9 -15 12 -4 22
-11 22 -16 0 -5 6 -8 13 -6 6 1 28 -13 47 -32 19 -19 44 -36 54 -38 11 -2 -29
45 -93 108 -75 76 -147 136 -222 186 -112 74 -119 79 -119 68z"/>
<path d="M6544 6609 c-3 -6 -2 -14 2 -17 5 -4 24 -21 43 -37 l33 -30 -15 30
c-20 39 -54 68 -63 54z"/>
<path d="M6464 6555 c15 -14 32 -25 39 -25 15 1 -40 50 -55 50 -6 0 1 -11 16
-25z"/>
<path d="M6460 6501 c0 -5 9 -13 20 -16 11 -3 20 -12 20 -19 0 -11 65 -76 76
-76 2 0 4 7 4 16 0 8 5 12 10 9 6 -3 10 -1 10 5 0 6 -11 15 -25 20 -14 5 -25
12 -25 15 0 4 5 3 10 0 6 -3 10 -2 10 4 0 12 -43 35 -82 45 -16 3 -28 2 -28
-3z"/>
<path d="M6652 6478 c7 -13 19 -27 26 -31 7 -5 10 -12 7 -18 -4 -5 -1 -9 4 -9
13 0 13 2 1 34 -5 14 -18 30 -30 36 -20 11 -20 10 -8 -12z"/>
<path d="M6725 6421 c6 -18 4 -22 -6 -16 -9 5 -10 5 -4 -2 10 -10 65 -35 65
-30 0 2 -14 19 -31 38 -27 29 -30 31 -24 10z"/>
<path d="M6428 6353 c12 -8 22 -22 22 -29 0 -8 6 -14 13 -15 6 0 3 -4 -8 -9
-14 -6 -15 -9 -5 -10 14 -1 44 -34 139 -153 43 -54 51 -56 48 -15 -1 23 -13
44 -40 71 -21 20 -43 37 -47 37 -17 0 -70 59 -70 78 0 24 -36 62 -58 61 -14 0
-13 -3 6 -16z"/>
<path d="M6750 6360 c0 -5 5 -10 11 -10 5 0 7 5 4 10 -3 6 -8 10 -11 10 -2 0
-4 -4 -4 -10z"/>
<path d="M6556 6335 c4 -8 11 -15 16 -15 6 0 5 6 -2 15 -7 8 -14 15 -16 15 -2
0 -1 -7 2 -15z"/>
<path d="M1342 6196 c-48 -58 -79 -107 -93 -145 -10 -26 -9 -25 16 4 14 16 36
45 47 65 12 19 35 52 51 72 45 59 27 62 -21 4z"/>
<path d="M4854 5710 c-122 -29 -241 -193 -298 -410 -47 -177 -76 -417 -76
-620 l0 -88 -53 -48 c-111 -102 -249 -140 -331 -92 -22 13 -48 35 -59 50 l-20
27 79 84 c137 147 174 232 140 322 -26 67 -70 90 -171 89 -99 0 -154 -24 -220
-95 -74 -79 -100 -145 -102 -262 -1 -59 -6 -104 -13 -112 -31 -37 -136 -98
-177 -103 -38 -4 -46 -1 -73 28 -33 36 -68 135 -95 270 -26 136 -44 189 -65
200 -11 6 -76 15 -143 21 -145 12 -167 19 -167 54 0 33 -42 75 -74 75 -36 0
-78 -40 -78 -74 0 -44 22 -75 64 -88 34 -10 37 -14 32 -37 -12 -49 -82 -190
-133 -266 -52 -77 -62 -105 -37 -105 26 0 141 196 185 318 17 45 28 62 42 62
38 0 118 -22 129 -35 7 -8 20 -72 31 -142 31 -209 59 -283 128 -346 48 -43
108 -61 173 -53 27 4 48 4 48 1 0 -3 -8 -22 -19 -43 -101 -200 -155 -677 -120
-1065 14 -152 34 -221 68 -225 74 -11 111 44 152 221 53 236 123 412 163 412
16 0 26 -21 55 -120 68 -224 129 -300 240 -300 77 1 141 34 222 117 l67 67 35
-53 c126 -189 393 -190 522 -2 120 176 60 416 -127 513 -45 23 -65 27 -133 27
-87 0 -112 -9 -197 -71 -37 -26 -56 -52 -85 -110 -35 -70 -37 -82 -38 -167 0
-88 -1 -93 -32 -133 -18 -22 -48 -48 -67 -57 -102 -48 -138 1 -210 284 -58
234 -83 290 -127 290 -40 0 -149 -161 -228 -335 -65 -145 -60 -143 -60 -22
l-1 107 74 148 c100 201 159 339 192 452 15 52 28 96 29 97 0 1 27 -8 60 -19
131 -44 306 12 477 154 l46 38 7 -67 c13 -146 27 -238 40 -270 12 -28 19 -33
48 -33 20 0 42 8 56 21 27 25 71 114 71 144 0 11 4 25 8 30 4 6 58 11 119 12
188 3 323 51 406 143 100 111 112 287 26 384 -69 80 -212 106 -311 57 -68 -32
-141 -118 -193 -225 l-45 -91 0 101 c0 99 1 101 43 180 54 102 168 349 201
439 68 186 72 325 11 349 -21 8 -71 6 -111 -4z m100 -66 c11 -29 6 -110 -10
-165 -26 -89 -111 -296 -173 -424 l-59 -120 -1 70 c-3 237 49 511 113 598 38
52 116 76 130 41z m-809 -668 c67 -28 83 -107 39 -195 -36 -71 -181 -221 -194
-201 -22 35 -42 162 -36 222 18 152 88 217 191 174z m894 -111 c40 -35 55 -84
48 -163 -11 -117 -80 -227 -167 -266 -52 -23 -170 -27 -195 -6 -10 9 -15 31
-15 74 0 52 6 74 45 151 100 201 203 277 284 210z m-1215 -428 l29 -41 -16
-66 c-23 -97 -87 -257 -167 -415 l-70 -140 5 140 c10 263 54 461 120 530 18
19 41 35 51 35 11 -1 32 -19 48 -43z m949 -611 c49 -20 97 -73 130 -144 91
-195 -33 -420 -198 -358 -66 26 -129 99 -154 181 -12 37 -21 82 -21 101 0 165
118 273 243 220z"/>
<path d="M1815 5628 c-123 -13 -311 -64 -405 -109 -121 -58 -220 -142 -263
-224 -25 -48 -29 -172 -8 -248 16 -54 72 -123 138 -168 39 -27 44 -35 41 -60
-3 -16 -2 -29 1 -29 3 0 4 -29 3 -65 -3 -45 -8 -65 -17 -65 -7 0 -16 12 -19
26 -11 42 -25 17 -44 -77 -10 -46 -20 -89 -24 -94 -3 -6 -12 -39 -18 -75 -7
-36 -14 -71 -16 -78 -6 -23 -29 -7 -35 24 -5 20 -7 22 -8 9 0 -12 -6 -26 -11
-31 -6 -6 -14 -30 -19 -55 -8 -38 -9 -34 -6 31 2 41 7 111 11 156 6 71 4 82
-11 88 -14 5 -16 2 -11 -19 4 -15 2 -25 -4 -25 -7 0 -7 -7 1 -21 8 -17 7 -37
-5 -88 -9 -36 -17 -92 -18 -124 -2 -57 -18 -94 -18 -43 0 14 -7 29 -16 34 -9
5 -17 20 -18 33 -1 13 -7 23 -13 22 -19 -4 -23 54 -6 94 8 21 17 62 18 91 1
29 7 58 14 65 6 6 11 23 11 38 0 15 5 50 12 78 6 28 8 54 5 58 -9 8 -18 -1
-21 -20 -1 -8 -9 -22 -18 -30 -9 -9 -19 -31 -23 -49 -4 -18 -14 -40 -22 -50
-8 -9 -16 -42 -18 -75 -3 -32 -7 -74 -11 -94 -4 -25 -1 -39 10 -48 21 -17 20
-60 0 -89 -13 -19 -14 -29 -5 -50 6 -15 10 -65 9 -112 0 -47 2 -100 6 -117 6
-28 5 -32 -8 -27 -17 6 -23 -11 -7 -20 4 -3 11 -29 14 -58 12 -95 35 -243 42
-265 9 -29 -4 -29 -34 -2 -15 14 -21 28 -17 43 3 12 1 28 -4 36 -7 11 -11 3
-16 -28 -7 -44 -30 -58 -40 -24 -20 63 -51 86 -40 30 4 -18 8 -60 10 -93 1
-33 8 -80 15 -104 15 -54 7 -99 -14 -81 -8 7 -15 20 -15 29 0 18 -18 41 -32
41 -11 0 -10 -80 3 -142 13 -68 29 -110 47 -123 19 -15 36 -96 21 -105 -7 -5
-9 -21 -5 -44 3 -20 9 -52 12 -71 3 -19 12 -40 20 -46 18 -15 18 -38 -1 -45
-8 -3 -19 -21 -25 -39 -12 -37 -2 -68 25 -79 8 -3 15 -11 15 -18 0 -7 7 -26
15 -42 9 -16 13 -31 11 -33 -3 -3 -14 13 -26 36 -22 43 -30 47 -61 30 -14 -7
-18 -16 -13 -31 5 -17 3 -19 -15 -13 -21 6 -30 -8 -11 -20 5 -3 12 -32 16 -65
4 -33 10 -60 15 -60 4 0 24 -33 43 -73 38 -78 125 -216 158 -251 23 -25 127
-181 136 -204 7 -18 108 -155 157 -212 35 -40 271 -276 336 -335 121 -110 200
-176 257 -213 35 -23 65 -42 67 -42 3 0 15 -9 27 -20 76 -68 92 -80 104 -80 8
0 26 -14 41 -30 27 -31 78 -45 53 -15 -7 8 -19 15 -27 15 -7 0 -16 7 -19 15
-4 8 -11 15 -16 15 -5 0 -22 9 -36 21 -15 11 -45 34 -67 50 -22 17 -53 41 -70
54 -16 13 -67 51 -112 85 -45 33 -90 71 -100 83 -10 12 -49 49 -88 82 -76 66
-215 204 -215 214 0 3 -20 29 -45 56 -61 68 -57 81 6 20 72 -70 101 -97 135
-122 16 -12 67 -59 114 -104 47 -44 132 -122 190 -172 58 -51 111 -97 118
-104 7 -7 17 -13 20 -13 4 0 20 -12 35 -26 49 -45 297 -207 409 -267 59 -32
110 -63 114 -68 9 -14 -14 -29 -46 -29 l-25 0 24 -19 c20 -15 21 -19 8 -24 -9
-3 -19 -2 -22 3 -4 6 -13 10 -21 10 -12 0 -12 -4 -4 -20 6 -11 19 -20 29 -20
19 0 95 -30 143 -56 14 -7 35 -14 46 -14 12 0 24 -4 27 -10 3 -5 15 -10 25
-10 10 0 23 -6 27 -14 10 -16 71 -45 98 -46 41 0 71 -7 107 -23 21 -9 43 -17
51 -17 7 0 17 -4 23 -9 5 -6 29 -11 53 -13 54 -4 63 -21 21 -38 -27 -11 -37
-11 -66 3 -50 24 -52 21 -14 -18 37 -38 34 -50 -13 -50 -16 0 -32 -6 -34 -12
-3 -9 6 -13 24 -13 16 0 33 -4 39 -9 5 -4 41 -16 79 -26 156 -38 153 -37 153
-64 0 -14 5 -27 11 -29 6 -2 11 -12 11 -23 0 -20 4 -23 53 -33 20 -5 27 -2 27
8 0 12 11 13 58 9 31 -3 64 -9 72 -13 8 -5 56 -9 105 -10 50 0 108 -2 130 -3
22 -2 118 0 215 4 102 4 179 3 184 -2 15 -14 26 -11 19 7 -5 12 0 15 23 12 17
-2 28 -8 27 -15 -2 -9 9 -13 32 -13 19 0 35 -4 35 -9 0 -17 -78 -37 -170 -45
-43 -4 -110 -31 -110 -45 0 -6 -7 -11 -15 -11 -8 0 -15 7 -15 16 0 13 -6 15
-32 10 -18 -4 -52 -9 -76 -13 -23 -3 -45 -10 -48 -14 -9 -15 27 -23 47 -11 12
8 39 9 86 3 37 -4 75 -6 85 -3 27 7 65 -6 72 -24 5 -14 1 -16 -25 -10 -17 3
-62 3 -100 0 -57 -6 -69 -10 -69 -24 0 -11 10 -20 26 -24 14 -4 24 -12 21 -19
-2 -7 5 -13 17 -14 11 -2 41 -5 66 -9 92 -11 304 -4 400 15 52 11 138 24 190
31 113 13 195 28 270 47 176 45 207 55 237 73 19 11 41 20 49 20 16 0 40 9
199 75 127 53 195 85 195 91 0 8 -38 -5 -115 -41 -38 -18 -81 -36 -95 -40 -14
-4 -31 -12 -38 -18 -7 -5 -29 -13 -50 -18 -20 -4 -64 -17 -97 -28 -60 -20
-229 -73 -252 -79 -25 -7 -12 19 15 30 15 6 50 21 77 34 28 12 73 30 100 39
28 10 57 23 65 30 8 7 44 23 80 35 36 12 69 26 75 31 5 5 16 9 25 9 9 0 33 9
55 20 22 11 43 20 48 20 7 0 131 56 205 93 13 6 19 13 13 15 -7 2 -18 -2 -26
-8 -11 -9 -19 -10 -28 -1 -8 6 -16 8 -19 5 -3 -3 -53 0 -112 7 -101 12 -106
14 -106 36 0 20 -5 23 -40 23 -23 0 -40 -5 -40 -11 0 -18 -108 -4 -131 17 -16
14 -24 15 -45 6 -29 -14 -73 -15 -92 -3 -11 7 -10 10 3 15 9 3 24 6 33 6 9 0
28 10 42 21 l25 20 -80 -5 -80 -5 55 13 c54 13 105 29 145 46 82 33 129 50
140 50 7 0 37 11 66 25 45 21 48 24 20 19 -23 -4 -31 -3 -27 5 11 18 -6 13
-20 -6 -10 -13 -16 -15 -21 -6 -5 6 -19 11 -33 11 -60 0 -186 16 -197 24 -7 6
-24 7 -37 4 -14 -3 -27 -2 -31 3 -3 6 11 13 31 17 21 4 38 14 41 23 2 9 47 36
99 61 51 24 94 47 94 51 0 4 15 10 34 13 18 4 55 18 82 31 27 14 54 25 61 25
6 0 14 9 18 20 3 10 23 29 43 42 20 12 38 25 40 29 2 5 22 17 46 28 23 12 51
29 62 38 34 31 112 83 123 83 6 0 11 4 11 10 0 5 8 14 19 19 16 9 20 7 23 -14
3 -13 1 -22 -3 -19 -5 3 -9 0 -9 -6 0 -6 -17 -18 -37 -26 -21 -9 -51 -28 -68
-44 -16 -15 -48 -40 -69 -54 -21 -14 -32 -26 -24 -26 8 0 24 9 37 21 28 26 41
17 16 -11 -43 -47 68 -1 155 65 45 35 57 50 53 65 -3 12 0 20 7 20 14 0 40 25
40 39 0 15 -17 14 -22 -1 -4 -10 -10 -10 -32 0 -35 16 -123 16 -128 0 -3 -9
-12 -9 -36 1 -17 7 -82 14 -151 16 -119 3 -147 8 -136 26 8 12 -1 11 -25 -3
-15 -10 -27 -10 -55 1 -20 7 -39 10 -42 7 -4 -3 -1 -6 5 -6 7 0 12 -7 12 -15
0 -15 -34 -20 -102 -15 -23 1 -28 -3 -28 -20 0 -22 -1 -22 -26 -5 -24 16 -26
16 -31 -4 -5 -21 -61 -39 -82 -27 -5 4 -12 2 -15 -3 -3 -4 -19 -11 -36 -14
-21 -5 -30 -12 -30 -25 0 -27 -56 -82 -83 -82 l-22 0 24 19 c13 10 21 23 17
29 -3 6 2 16 11 22 16 10 15 11 -7 6 -14 -3 -29 -6 -34 -6 -4 0 -6 -6 -3 -14
3 -8 -1 -20 -8 -26 -8 -7 -13 -16 -10 -20 16 -26 -101 -59 -120 -34 -9 12 -18
12 -70 -2 -33 -9 -74 -20 -92 -24 -17 -4 -44 -17 -58 -28 -24 -19 -28 -20 -71
-5 -43 14 -46 14 -67 -4 -26 -24 -134 -48 -177 -40 -33 7 -130 -11 -130 -24 0
-5 -7 -6 -15 -3 -8 4 -23 3 -33 -1 -28 -12 -134 -16 -127 -5 3 6 21 10 40 10
22 0 37 6 44 17 7 14 23 18 63 19 29 0 62 2 73 3 l20 2 -20 8 c-11 5 -23 7
-28 4 -13 -8 -140 -11 -127 -3 7 4 8 10 4 12 -12 7 -76 -11 -71 -20 3 -4 -11
-14 -29 -23 -19 -9 -34 -13 -34 -9 0 4 -11 11 -25 14 -15 4 -23 11 -19 17 3 6
17 8 30 5 14 -4 24 -2 24 4 0 5 11 10 25 10 14 0 37 7 51 16 18 12 28 14 36 6
6 -6 16 -8 23 -5 8 2 23 0 34 -7 16 -8 26 -7 46 6 14 9 34 14 45 11 22 -6 26
3 9 20 -15 15 8 28 24 14 15 -12 57 -4 57 11 0 6 14 8 30 6 17 -3 33 -1 36 4
9 14 24 9 18 -6 -8 -21 12 -28 30 -11 9 9 21 15 28 14 26 -3 38 1 38 15 0 14
67 46 98 46 21 0 60 26 52 34 -3 3 -33 -3 -66 -14 -34 -10 -96 -23 -138 -29
-43 -6 -90 -14 -104 -18 -24 -5 -25 -4 -14 9 7 9 31 18 55 22 78 12 135 35
133 54 -2 13 8 20 43 27 33 8 45 15 43 26 -3 18 44 43 53 29 4 -6 21 -10 39
-10 17 0 37 -5 42 -10 7 -7 25 -5 56 9 26 11 49 17 52 14 3 -4 6 -1 6 6 0 10
-10 11 -36 6 -28 -5 -35 -3 -32 7 3 7 13 15 24 17 10 2 30 11 44 21 42 29 169
65 183 51 6 -6 7 -11 1 -11 -5 0 -3 -4 5 -9 14 -9 71 8 71 22 0 4 -10 7 -22 5
-18 -2 -22 1 -20 17 5 28 3 26 137 96 66 34 131 71 145 81 14 11 47 33 74 49
26 17 46 33 43 36 -3 3 -28 -8 -54 -24 -73 -44 -163 -86 -169 -80 -7 6 95 74
151 100 22 10 58 37 80 61 22 23 73 64 114 90 40 26 71 49 68 52 -8 8 -121
-66 -170 -110 -11 -11 -53 -36 -91 -56 -39 -20 -117 -62 -173 -92 -98 -53
-222 -108 -244 -108 -8 0 -8 4 1 15 6 8 9 19 5 25 -3 5 0 16 8 24 18 18 129
69 254 116 38 14 64 40 40 40 -13 0 -43 -10 -112 -39 -40 -17 -133 -41 -181
-47 -27 -4 -54 -11 -60 -15 -6 -5 -14 -6 -17 -2 -4 3 -13 0 -22 -7 -9 -8 -27
-10 -50 -6 -24 5 -46 2 -70 -10 -28 -13 -51 -15 -117 -9 -46 3 -99 6 -118 6
-19 0 -38 5 -41 11 -4 7 -43 13 -91 14 -105 4 -228 17 -388 43 -243 40 -270
46 -270 61 0 16 14 18 63 10 26 -4 49 -4 51 -1 2 3 66 2 143 -4 76 -5 217 -9
313 -9 157 1 184 4 265 27 50 14 79 26 65 27 -14 1 -104 3 -200 6 -96 2 -209
9 -250 14 -169 22 -363 54 -482 79 -26 6 -84 12 -128 14 -44 2 -83 7 -87 10
-3 4 -21 7 -39 7 -18 0 -53 6 -76 14 -24 8 -85 16 -136 18 -53 2 -97 9 -104
16 -7 7 -20 12 -30 12 -9 0 -21 6 -25 14 -4 7 -22 21 -40 30 -36 18 -63 56
-40 56 7 0 18 -5 25 -12 7 -7 12 -8 12 -3 0 17 -44 52 -84 69 -21 9 -40 24
-42 33 -3 10 -20 27 -39 38 -19 11 -74 59 -124 108 -67 65 -96 87 -116 87 -17
0 -25 -5 -22 -12 2 -7 10 -13 18 -13 8 0 15 -10 17 -22 2 -12 32 -48 67 -79
35 -32 66 -66 68 -76 3 -10 21 -25 40 -33 19 -8 54 -29 78 -48 24 -18 52 -36
62 -40 18 -7 15 -27 -4 -27 -5 0 -27 11 -48 25 -22 13 -52 27 -68 31 -15 4
-44 20 -63 35 -67 55 -120 104 -120 112 0 14 -44 46 -62 47 -15 0 -45 22 -98
74 -8 8 -28 31 -44 50 -30 36 -56 47 -56 23 0 -16 29 -58 52 -75 22 -16 23
-32 4 -32 -8 0 -16 -8 -19 -17 -3 -14 -15 -7 -56 36 -28 29 -58 69 -66 87 -8
19 -18 34 -24 34 -5 0 -13 10 -17 22 -3 12 -22 45 -40 74 -19 29 -34 59 -34
66 0 7 -9 28 -21 47 -16 27 -23 31 -30 20 -8 -12 -12 -11 -24 5 -8 11 -15 23
-15 28 0 11 18 10 25 -2 3 -5 12 -7 20 -4 8 3 36 -1 62 -9 116 -38 350 -55
506 -38 123 14 259 50 329 88 155 84 237 228 225 394 -11 158 -89 259 -269
347 -110 54 -204 84 -496 156 -229 57 -438 136 -359 136 16 0 63 7 105 16 296
59 457 232 439 472 -4 51 -2 72 6 72 7 -1 47 -7 90 -15 205 -36 327 -126 351
-257 l7 -37 -53 24 c-62 29 -88 31 -132 10 -65 -31 -87 -119 -41 -169 56 -61
155 -60 221 1 40 37 54 73 54 136 0 107 -76 206 -205 267 -69 33 -210 70 -267
70 -41 0 -44 3 -90 74 -87 135 -245 207 -695 317 -176 43 -280 77 -376 125
l-59 28 6 41 c4 22 17 61 31 88 22 43 24 77 6 77 -16 0 -51 -49 -76 -105 l-27
-60 -38 42 c-42 44 -64 106 -54 150 27 118 172 224 383 281 86 23 115 25 276
26 136 0 196 -4 246 -16 176 -45 280 -129 302 -244 3 -18 4 -34 1 -36 -2 -3
-25 6 -51 18 -25 13 -57 24 -71 24 -37 0 -86 -27 -105 -59 -57 -97 39 -196
156 -161 87 26 127 80 127 172 -1 239 -339 385 -775 336z m-120 -903 c304 -84
412 -119 500 -162 70 -34 112 -60 104 -66 -2 -1 -47 -13 -99 -26 -181 -45
-310 -111 -399 -206 -70 -74 -93 -129 -93 -221 0 -67 -2 -74 -20 -74 -10 0
-29 11 -42 25 -13 14 -28 25 -33 25 -5 0 -18 6 -28 14 -18 13 -18 15 -2 39 18
29 17 129 -2 165 -19 35 -13 69 16 90 l26 19 -32 32 c-24 24 -36 30 -44 22 -6
-6 -20 -11 -30 -11 -16 0 -18 5 -14 28 4 18 -1 35 -14 52 -18 23 -20 24 -33 8
-24 -32 -33 -24 -65 55 -6 15 -17 27 -26 27 -8 0 -15 9 -15 20 0 22 -15 27
-23 8 -3 -7 -6 -2 -6 12 -1 34 36 93 54 86 11 -4 17 10 26 55 11 54 14 60 33
56 12 -3 129 -35 261 -72z m-370 -175 c3 -5 1 -10 -4 -10 -6 0 -11 5 -11 10 0
6 2 10 4 10 3 0 8 -4 11 -10z m11 -81 c3 -6 -3 -20 -14 -32 -19 -19 -22 -19
-28 -4 -11 29 26 61 42 36z m1051 -41 c94 -100 90 -212 -11 -313 -73 -73 -254
-155 -344 -155 -30 0 -109 91 -122 140 -36 134 116 276 367 345 70 19 76 18
110 -17z m-1390 -110 c-3 -8 -6 -5 -6 6 -1 11 2 17 5 13 3 -3 4 -12 1 -19z
m73 -92 c0 -3 -4 -8 -10 -11 -5 -3 -10 -1 -10 4 0 6 5 11 10 11 6 0 10 -2 10
-4z m30 -46 c0 -5 -7 -10 -15 -10 -8 0 -15 5 -15 10 0 6 7 10 15 10 8 0 15 -4
15 -10z m13 -127 c-3 -7 -9 -13 -13 -13 -18 0 -20 21 -8 62 l13 43 6 -40 c4
-22 4 -45 2 -52z m197 23 c9 -24 1 -126 -10 -126 -7 0 -11 16 -26 118 -6 37
-5 42 10 36 10 -4 21 -16 26 -28z m-210 -99 c0 -5 -4 -5 -10 -2 -5 3 -10 14
-10 23 0 15 2 15 10 2 5 -8 10 -19 10 -23z m30 -47 c0 -5 -5 -10 -11 -10 -5 0
-7 5 -4 10 3 6 8 10 11 10 2 0 4 -4 4 -10z m502 -37 c2 -34 7 -48 18 -48 8 0
16 8 18 18 2 9 -1 17 -7 17 -23 0 -10 26 20 39 16 7 32 12 33 10 2 -2 13 -22
24 -44 60 -119 190 -185 587 -295 400 -112 516 -160 623 -264 77 -73 101 -141
77 -221 -45 -155 -282 -274 -547 -275 -156 0 -376 55 -418 105 -7 8 -28 15
-49 15 -26 0 -47 9 -74 31 -20 17 -37 34 -37 39 0 4 14 13 31 20 70 29 109
132 74 199 -29 57 -120 80 -185 46 -29 -15 -31 -14 -54 7 -17 17 -25 38 -29
81 -5 53 6 78 19 42 4 -8 10 -13 14 -10 4 3 -1 22 -12 44 -21 44 -22 118 0
114 6 -2 12 2 12 7 0 6 6 10 13 10 16 0 17 124 0 141 -17 17 -29 3 -14 -14 14
-17 3 -79 -13 -74 -6 2 -12 22 -14 45 -2 23 -7 42 -12 42 -5 0 -7 -28 -4 -63
4 -67 -5 -118 -23 -124 -6 -2 -14 5 -18 16 -4 12 -12 18 -21 14 -10 -3 -12 0
-8 10 3 8 -6 38 -21 66 -14 29 -24 58 -23 66 2 7 -1 13 -6 12 -12 -3 -28 42
-19 56 4 6 8 41 10 77 4 74 8 90 22 90 6 0 11 -21 13 -47z m48 37 c0 -5 -4
-10 -9 -10 -6 0 -13 5 -16 10 -3 6 1 10 9 10 9 0 16 -4 16 -10z m-360 -15 c0
-8 -4 -15 -10 -15 -5 0 -10 7 -10 15 0 8 5 15 10 15 6 0 10 -7 10 -15z m280
-245 c0 -5 -4 -10 -10 -10 -5 0 -10 5 -10 10 0 6 5 10 10 10 6 0 10 -4 10 -10z
m-630 -141 c0 -18 -2 -19 -15 -9 -15 12 -12 30 6 30 5 0 9 -10 9 -21z m7 -49
c3 -11 9 -20 14 -20 5 0 12 0 17 0 4 0 8 5 8 10 3 23 5 24 19 6 20 -26 20 -70
1 -63 -10 4 -13 1 -10 -8 3 -8 11 -13 17 -12 5 1 17 -10 26 -25 15 -26 15 -29
-5 -49 -21 -20 -23 -20 -48 -4 -21 14 -26 25 -26 56 0 31 -3 37 -16 32 -13 -5
-15 -2 -10 15 5 14 1 30 -8 44 -20 28 -20 38 0 38 9 0 18 -9 21 -20z m-24
-440 c9 -30 42 -104 72 -165 69 -136 86 -175 76 -175 -5 0 -11 10 -15 22 -4
18 -8 20 -17 11 -17 -17 -39 2 -39 32 0 12 -9 30 -20 40 -11 10 -22 26 -25 36
-4 11 -12 19 -18 19 -7 0 -18 9 -25 20 -7 11 -8 20 -3 20 6 0 13 -5 16 -10 13
-21 24 2 13 28 -6 15 -14 36 -18 47 -9 21 -40 149 -40 162 0 20 29 -38 43 -87z
m404 -102 c-3 -8 -6 -5 -6 6 -1 11 2 17 5 13 3 -3 4 -12 1 -19z m673 -53 c17
-9 30 -20 30 -24 0 -5 12 -23 26 -40 20 -24 22 -31 10 -31 -9 0 -16 5 -16 10
0 6 -6 10 -14 10 -8 0 -28 20 -45 45 -34 50 -33 52 9 30z m-590 -61 c0 -4 -9
1 -20 11 -11 10 -20 23 -20 28 0 6 9 1 20 -11 11 -12 20 -24 20 -28z m90 -165
c0 -6 -4 -7 -10 -4 -5 3 -10 11 -10 16 0 6 5 7 10 4 6 -3 10 -11 10 -16z
m-410 -5 c0 -8 -4 -12 -10 -9 -5 3 -10 10 -10 16 0 5 5 9 10 9 6 0 10 -7 10
-16z m469 -83 c22 -33 41 -62 41 -65 0 -16 -17 -2 -39 32 -13 20 -32 49 -43
65 -10 15 -15 27 -10 27 5 0 28 -27 51 -59z m91 -133 c0 -5 -7 -3 -15 6 -8 8
-15 18 -15 22 0 3 7 1 15 -6 8 -7 15 -17 15 -22z m909 -84 c16 -10 34 -28 40
-42 11 -23 10 -24 -16 -17 -15 3 -43 20 -60 38 -25 24 -33 27 -33 14 0 -9 -7
-17 -15 -17 -8 0 -15 2 -15 4 0 2 -3 11 -6 19 -3 9 2 17 13 20 16 5 16 6 -2 5
-37 -1 -43 2 -48 22 -4 15 0 20 13 20 14 0 17 6 13 23 -4 17 5 12 41 -25 25
-26 59 -55 75 -64z m-664 -184 c3 -5 1 -10 -4 -10 -6 0 -11 5 -11 10 0 6 2 10
4 10 3 0 8 -4 11 -10z m395 -362 c0 -6 -6 -5 -15 2 -8 7 -15 14 -15 16 0 2 7
1 15 -2 8 -4 15 -11 15 -16z m1120 -148 c0 -5 -5 -10 -11 -10 -5 0 -7 5 -4 10
3 6 8 10 11 10 2 0 4 -4 4 -10z m1340 -75 c0 -10 -64 -34 -74 -28 -5 3 2 12
15 19 24 14 59 18 59 9z m-2010 -55 c0 -5 -4 -10 -10 -10 -5 0 -10 5 -10 10 0
6 5 10 10 10 6 0 10 -4 10 -10z m240 -65 c17 -21 9 -26 -29 -19 -25 5 -29 9
-20 20 15 18 34 18 49 -1z m-515 -18 c11 -6 26 -17 34 -25 13 -13 12 -14 -9
-7 -14 4 -47 18 -75 31 l-50 23 40 -6 c22 -3 49 -10 60 -16z m115 -22 c17 -9
30 -17 30 -19 0 -9 -51 8 -61 20 -15 18 -5 18 31 -1z m921 -26 c32 -16 22 -32
-15 -26 -19 3 -39 0 -45 -6 -8 -8 -11 -8 -11 1 0 7 5 12 10 12 6 0 10 5 10 11
0 6 -9 9 -19 6 -23 -6 -46 7 -37 21 6 11 74 -1 107 -19z m-101 -19 c0 -5 -4
-10 -10 -10 -5 0 -10 5 -10 10 0 6 5 10 10 10 6 0 10 -4 10 -10z m990 0 c0
-11 -65 -24 -80 -15 -5 3 -8 11 -5 16 8 12 85 12 85 -1z m-1620 -60 c0 -5 -5
-10 -11 -10 -5 0 -7 5 -4 10 3 6 8 10 11 10 2 0 4 -4 4 -10z m150 -10 c0 -5
-4 -10 -9 -10 -6 0 -13 5 -16 10 -3 6 1 10 9 10 9 0 16 -4 16 -10z m2169 -31
c-36 -31 -54 -22 -23 12 9 10 22 15 30 12 11 -4 10 -9 -7 -24z m-2832 -15 c28
-16 43 -34 29 -34 -13 0 -115 58 -110 63 7 7 37 -4 81 -29z m628 26 c19 -8 19
-9 -2 -9 -12 -1 -25 4 -28 9 -7 12 2 12 30 0z m85 0 c0 -5 -2 -10 -4 -10 -3 0
-8 5 -11 10 -3 6 -1 10 4 10 6 0 11 -4 11 -10z m155 -21 c55 -11 110 -22 123
-25 12 -2 22 -11 22 -19 0 -11 -7 -14 -22 -10 -13 3 -40 7 -60 8 -20 1 -40 6
-44 10 -4 4 -21 7 -38 7 -30 0 -125 49 -96 50 8 0 59 -9 115 -21z m2695 -29
c-6 -11 -20 -20 -30 -20 -27 0 -25 7 8 24 35 19 35 20 22 -4z m-1870 0 c0 -5
-7 -10 -16 -10 -8 0 -12 5 -9 10 3 6 10 10 16 10 5 0 9 -4 9 -10z m-542 -10
c57 0 72 -3 72 -15 0 -16 16 -21 22 -6 2 4 14 12 28 16 22 7 23 6 11 -8 -12
-15 -9 -16 27 -14 22 1 38 5 36 8 -8 14 48 16 61 3 18 -18 26 -18 19 1 -5 11
1 15 22 15 28 -1 28 -1 10 -15 -18 -13 -9 -15 85 -10 174 8 189 9 196 1 17
-17 -28 -21 -229 -20 -367 1 -378 2 -372 19 4 11 0 15 -16 15 -16 0 -20 -4
-16 -15 3 -8 1 -15 -4 -15 -6 0 -10 7 -10 15 0 18 -17 20 -22 4 -3 -9 -10 -9
-26 0 -27 15 -18 35 12 27 11 -3 54 -6 94 -6z m402 6 c0 -2 -7 -6 -15 -10 -8
-3 -15 -1 -15 4 0 6 7 10 15 10 8 0 15 -2 15 -4z m400 -6 c0 -5 -5 -10 -11
-10 -5 0 -7 5 -4 10 3 6 8 10 11 10 2 0 4 -4 4 -10z m-1615 -280 c3 -5 -1 -10
-9 -10 -9 0 -16 5 -16 10 0 6 4 10 9 10 6 0 13 -4 16 -10z m2395 -43 c-14 -8
-27 -12 -30 -10 -7 6 23 23 40 23 8 0 4 -6 -10 -13z m13 -234 c-7 -2 -19 -2
-25 0 -7 3 -2 5 12 5 14 0 19 -2 13 -5z m-1828 -43 c3 -5 1 -10 -4 -10 -6 0
-11 5 -11 10 0 6 2 10 4 10 3 0 8 -4 11 -10z m1995 0 c0 -5 -5 -10 -11 -10 -5
0 -7 5 -4 10 3 6 8 10 11 10 2 0 4 -4 4 -10z m-1795 -38 c22 -5 51 -10 64 -10
13 -1 31 -8 40 -16 10 -9 22 -16 28 -16 24 0 20 -28 -5 -40 -39 -18 -172 -26
-172 -10 0 8 -8 10 -23 6 -14 -3 -32 1 -43 9 -10 8 -29 15 -42 15 -15 0 -22 5
-19 13 2 6 16 12 31 12 19 -1 35 8 49 26 12 15 29 26 37 24 8 -2 33 -8 55 -13z
m155 -12 c0 -5 -7 -10 -16 -10 -8 0 -12 5 -9 10 3 6 10 10 16 10 5 0 9 -4 9
-10z m885 -404 c18 -13 17 -15 -20 -25 -22 -6 -51 -11 -64 -11 -14 0 -40 -5
-58 -12 -21 -8 -36 -9 -43 -2 -18 18 7 35 71 45 35 6 65 12 68 15 8 8 27 4 46
-10z m-335 -27 c11 -8 12 -12 2 -16 -7 -2 -20 -12 -29 -21 -12 -12 -18 -13
-21 -4 -2 6 -10 12 -17 12 -17 0 -28 17 -20 30 8 13 66 13 85 -1z m90 -19 c0
-5 -7 -10 -15 -10 -8 0 -15 5 -15 10 0 6 7 10 15 10 8 0 15 -4 15 -10z"/>
<path d="M5506 5078 c-49 -45 -36 -106 28 -137 37 -17 43 -24 39 -43 -9 -42
-91 -202 -137 -271 -47 -69 -56 -97 -32 -97 26 0 144 205 187 325 l18 50 50
-2 c28 -1 64 -9 80 -17 32 -17 35 -26 51 -146 19 -138 32 -195 61 -256 90
-193 279 -201 464 -20 l65 64 26 -48 c50 -92 165 -160 272 -160 118 0 236 81
290 198 21 47 26 72 26 147 1 77 -3 98 -26 147 -97 207 -349 262 -503 110 -28
-27 -61 -74 -79 -112 -27 -57 -30 -76 -31 -157 0 -88 -1 -93 -29 -122 -59 -61
-159 -96 -206 -71 -44 23 -85 131 -119 310 -25 130 -38 168 -62 181 -11 5 -75
14 -142 20 -119 10 -168 21 -166 36 7 42 -34 93 -75 93 -14 0 -36 -10 -50 -22z
m1302 -137 c94 -49 153 -155 153 -276 0 -89 -23 -147 -76 -194 -52 -45 -92
-49 -162 -14 -68 33 -120 100 -148 189 -38 122 17 269 115 307 31 12 82 6 118
-12z"/>
<path d="M6731 3964 c0 -11 3 -14 6 -6 3 7 2 16 -1 19 -3 4 -6 -2 -5 -13z"/>
<path d="M6723 3880 c0 -25 2 -35 4 -22 2 12 2 32 0 45 -2 12 -4 2 -4 -23z"/>
<path d="M5166 3876 c-45 -17 -61 -30 -52 -44 4 -6 23 -5 53 4 102 31 194 4
271 -80 108 -118 121 -276 30 -365 -24 -23 -41 -31 -67 -31 -83 0 -128 61
-180 241 -33 113 -43 129 -69 113 -79 -48 -135 -525 -103 -871 13 -130 23
-173 42 -173 25 0 71 45 118 116 49 72 51 79 51 142 0 37 -7 114 -15 172 -8
58 -15 154 -15 215 l0 110 34 -51 c48 -71 129 -141 179 -155 107 -29 214 25
253 128 27 70 16 195 -25 277 -47 96 -127 178 -216 222 -64 32 -85 37 -162 40
-61 3 -100 0 -127 -10z"/>
<path d="M920 3821 c0 -6 5 -13 10 -16 6 -3 10 1 10 9 0 9 -4 16 -10 16 -5 0
-10 -4 -10 -9z"/>
<path d="M6709 3785 c-4 -5 -9 -46 -12 -90 -3 -44 -4 -69 -1 -55 2 14 9 41 15
60 11 37 9 103 -2 85z"/>
<path d="M6665 3707 c-4 -10 -5 -21 -1 -24 10 -10 18 4 13 24 -4 17 -4 17 -12
0z"/>
<path d="M6585 3570 c3 -5 8 -10 11 -10 2 0 4 5 4 10 0 6 -5 10 -11 10 -5 0
-7 -4 -4 -10z"/>
<path d="M6653 3573 c-18 -7 -16 -23 2 -23 8 0 15 7 15 15 0 8 -1 15 -2 14 -2
0 -9 -3 -15 -6z"/>
<path d="M6613 3554 c-3 -8 -1 -34 4 -57 l10 -42 -1 58 c0 59 -3 67 -13 41z"/>
<path d="M6534 3539 c-3 -6 -1 -16 5 -22 8 -8 11 -5 11 11 0 24 -5 28 -16 11z"/>
<path d="M6581 3514 c0 -11 3 -14 6 -6 3 7 2 16 -1 19 -3 4 -6 -2 -5 -13z"/>
<path d="M6640 3475 c0 -14 2 -25 4 -25 2 0 6 11 8 25 3 14 1 25 -3 25 -5 0
-9 -11 -9 -25z"/>
<path d="M6526 3475 c-3 -8 -1 -15 4 -15 6 0 10 7 10 15 0 8 -2 15 -4 15 -2 0
-6 -7 -10 -15z"/>
<path d="M6507 3423 c-4 -3 -7 -28 -7 -56 0 -33 -9 -69 -28 -110 -16 -34 -37
-87 -47 -117 -28 -88 -95 -234 -153 -335 -65 -113 -115 -215 -109 -222 9 -8 1
-17 86 111 51 77 68 112 60 117 -17 10 7 40 26 33 7 -3 20 8 30 28 10 18 27
50 39 72 11 21 29 53 38 70 9 17 17 39 18 48 0 20 32 78 43 78 4 0 7 7 7 15 0
8 5 15 10 15 6 0 8 10 4 24 -6 24 10 44 21 26 8 -13 25 -13 25 1 0 6 9 22 20
36 11 14 20 36 20 50 0 13 6 26 13 29 8 3 11 18 9 44 -5 53 -22 51 -23 -2 -1
-24 -3 -35 -6 -25 -3 11 -11 16 -19 13 -9 -3 -14 1 -15 12 0 14 -2 14 -9 -3
-12 -28 -12 -37 0 -30 6 3 10 -1 10 -9 0 -9 -4 -16 -10 -16 -5 0 -10 -13 -10
-29 0 -17 -4 -32 -9 -35 -13 -8 -42 4 -36 14 5 8 14 160 10 160 -1 0 -5 -3 -8
-7z m76 -128 c-3 -9 -8 -14 -10 -11 -3 3 -2 9 2 15 9 16 15 13 8 -4z m-106
-97 c-3 -8 -6 -5 -6 6 -1 11 2 17 5 13 3 -3 4 -12 1 -19z"/>
<path d="M6532 3320 c0 -14 2 -19 5 -12 2 6 2 18 0 25 -3 6 -5 1 -5 -13z"/>
<path d="M6520 3275 c0 -8 5 -15 10 -15 6 0 10 7 10 15 0 8 -4 15 -10 15 -5 0
-10 -7 -10 -15z"/>
<path d="M800 2978 c0 -27 4 -38 15 -38 19 0 19 30 0 56 -13 18 -14 17 -15
-18z"/>
<path d="M6573 2884 c-7 -7 -13 -19 -13 -26 0 -7 7 -2 16 10 18 26 16 37 -3
16z"/>
<path d="M770 2845 c0 -8 4 -15 9 -15 5 0 14 -12 20 -27 10 -26 11 -26 6 -3
-2 14 -5 33 -5 43 0 9 -7 17 -15 17 -8 0 -15 -7 -15 -15z"/>
<path d="M770 2778 c0 -4 9 -22 20 -40 11 -18 20 -28 20 -23 0 6 -9 24 -20 40
-11 17 -20 27 -20 23z"/>
<path d="M2345 2610 c3 -5 8 -10 11 -10 2 0 4 5 4 10 0 6 -5 10 -11 10 -5 0
-7 -4 -4 -10z"/>
<path d="M3275 2120 c3 -5 10 -10 16 -10 5 0 9 5 9 10 0 6 -7 10 -16 10 -8 0
-12 -4 -9 -10z"/>
<path d="M3333 2113 c9 -2 23 -2 30 0 6 3 -1 5 -18 5 -16 0 -22 -2 -12 -5z"/>
<path d="M5765 1999 c-22 -17 -53 -43 -70 -58 -16 -15 -55 -44 -85 -64 -30
-20 -66 -45 -80 -56 -14 -12 -30 -21 -36 -21 -6 0 -33 -16 -60 -35 -27 -19
-54 -35 -61 -35 -6 0 -13 -4 -15 -8 -3 -9 -92 -59 -209 -119 -71 -35 -116 -73
-66 -54 58 22 232 119 357 200 36 23 78 49 94 59 16 9 50 34 77 55 27 20 52
37 55 37 6 0 93 70 144 117 27 25 -5 12 -45 -18z"/>
<path d="M5323 1885 c-18 -8 -33 -17 -33 -20 0 -13 40 -3 61 15 28 23 17 25
-28 5z"/>
<path d="M5660 1800 c-14 -11 -20 -20 -13 -20 11 0 43 26 43 36 0 7 -4 5 -30
-16z"/>
<path d="M5599 1753 c-13 -16 -12 -17 4 -4 9 7 17 15 17 17 0 8 -8 3 -21 -13z"/>
<path d="M4910 1451 c0 -14 5 -19 15 -14 17 6 15 25 -3 31 -7 2 -12 -5 -12
-17z"/>
<path d="M5470 1445 c-20 -15 -28 -25 -18 -25 8 0 21 7 28 15 7 8 19 15 26 15
8 0 14 5 14 10 0 15 -11 11 -50 -15z"/>
<path d="M6020 1411 c0 -6 7 -14 15 -17 20 -8 19 -23 -2 -46 -29 -32 -7 -19
43 26 l48 44 -29 -1 c-17 -1 -33 -6 -37 -11 -4 -6 -13 -4 -22 3 -11 10 -16 10
-16 2z"/>
<path d="M4643 1363 c-7 -2 -13 -8 -13 -13 0 -10 38 -1 46 11 6 10 -13 11 -33
2z"/>
<path d="M4776 1345 c-19 -15 -19 -15 2 -15 13 0 22 6 22 15 0 18 0 18 -24 0z"/>
<path d="M4845 1340 c3 -5 13 -10 21 -10 8 0 14 5 14 10 0 6 -9 10 -21 10 -11
0 -17 -4 -14 -10z"/>
<path d="M5645 1166 c-43 -12 -53 -29 -20 -33 20 -3 74 31 65 40 -3 2 -23 -1
-45 -7z"/>
<path d="M4230 1140 c0 -5 11 -10 24 -10 14 0 28 5 31 10 4 6 -7 10 -24 10
-17 0 -31 -4 -31 -10z"/>
<path d="M2216 1045 c4 -8 8 -15 10 -15 2 0 4 7 4 15 0 8 -4 15 -10 15 -5 0
-7 -7 -4 -15z"/>
<path d="M2250 1050 c-10 -6 -8 -9 6 -13 16 -4 17 -5 2 -6 -10 0 -18 -5 -18
-9 0 -13 49 -36 57 -27 5 4 3 10 -3 12 -7 2 -10 12 -7 22 5 21 -17 33 -37 21z"/>
<path d="M2335 1000 c-4 -6 -11 -8 -16 -5 -5 4 -9 2 -9 -3 0 -9 76 -62 90 -62
5 0 12 5 16 12 4 6 3 8 -3 5 -6 -4 -20 9 -32 28 -21 36 -35 43 -46 25z"/>
<path d="M5280 911 c0 -5 9 -11 21 -14 16 -4 18 -3 8 9 -13 16 -29 19 -29 5z"/>
<path d="M5525 880 c-8 -13 25 -13 45 0 12 8 9 10 -12 10 -15 0 -30 -4 -33
-10z"/>
<path d="M5363 863 c9 -2 25 -2 35 0 9 3 1 5 -18 5 -19 0 -27 -2 -17 -5z"/>
<path d="M2970 640 c19 -13 30 -13 30 0 0 6 -10 10 -22 10 -19 0 -20 -2 -8
-10z"/>
<path d="M5800 600 c-8 -5 -12 -11 -10 -14 3 -2 14 2 24 10 22 15 10 19 -14 4z"/>
<path d="M5750 500 c-9 -6 -10 -10 -3 -10 6 0 15 5 18 10 8 12 4 12 -15 0z"/>
<path d="M3290 389 c-13 -8 -13 -10 0 -19 21 -14 30 -12 30 4 0 20 -13 27 -30
15z"/>
</g>
</svg>
